<svg xmlns="http://www.w3.org/2000/svg" viewBox="0 0 640 360" role="img" aria-labelledby="title desc">
  <title id="title">O-GlcNAcPRED-DL conceptual artwork</title>
  <desc id="desc">A protein sequence passes through a deep-learning ensemble to produce site scores.</desc>
  <rect width="640" height="360" fill="#edf1fb"/>
  <path d="M58 180h100" stroke="#4f70c2" stroke-width="9" stroke-linecap="round"/>
  <g fill="#fff" stroke="#4f70c2" stroke-width="4">
    <circle cx="70" cy="180" r="18"/><circle cx="114" cy="180" r="18"/><circle cx="158" cy="180" r="18"/>
    <circle cx="273" cy="99" r="25"/><circle cx="273" cy="151" r="25"/><circle cx="273" cy="203" r="25"/><circle cx="273" cy="255" r="25"/>
    <circle cx="389" cy="125" r="25"/><circle cx="389" cy="177" r="25"/><circle cx="389" cy="229" r="25"/>
  </g>
  <g fill="none" stroke="#8ca0d3" stroke-width="3">
    <path d="m176 180 72-81m-72 81 72-29m-72 29 72 23m-72-23 72 75M298 99l66 26m-66-26 66 78m-66-26 66-26m-66 26 66 26m-66 26 66-78m-66 78 66 26m-66 26 66-78m-66 78 66-26"/>
  </g>
  <path d="M420 177h73" stroke="#4f70c2" stroke-width="7" stroke-linecap="round"/>
  <rect x="493" y="104" width="100" height="146" rx="18" fill="#fff" stroke="#4f70c2" stroke-width="4"/>
  <path d="M517 221v-47m26 47v-86m26 86v-114" stroke="#4f70c2" stroke-linecap="round" stroke-width="13"/>
</svg>
